<?xml version="1.0" encoding="UTF-8" standalone="no"?>
<!DOCTYPE svg PUBLIC "-//W3C//DTD SVG 1.1//EN" "http://www.w3.org/Graphics/SVG/1.1/DTD/svg11.dtd">
<svg width="100%" height="100%" viewBox="0 0 100 100" version="1.1" xmlns="http://www.w3.org/2000/svg" xmlns:xlink="http://www.w3.org/1999/xlink" xml:space="preserve" xmlns:serif="http://www.serif.com/" style="fill-rule:evenodd;clip-rule:evenodd;stroke-linejoin:round;stroke-miterlimit:2;">
    <g id="BlueFish">
        <path d="M9.203,53.108C8.298,51.814 7.768,50.239 7.768,48.541C7.768,46.709 8.361,45.016 8.926,43.331C10.653,38.182 13.515,34.491 18,31.357C23.904,27.232 29.699,24.664 37.187,25.294C38.643,25.416 40.19,25.885 41.631,26.283C42.015,26.283 42.688,26.287 43.045,26.306C46,26.468 49.061,27.016 51.799,28.127C54.776,29.334 57.386,31.644 60.066,33.378C62.318,34.834 64.736,36.056 66.992,37.556C69.792,39.419 72.273,41.592 74.581,43.934C75.339,42.913 75.982,41.781 76.484,40.629C76.876,39.728 77.126,38.757 77.569,37.874C77.636,37.741 77.703,37.609 77.763,37.471C77.693,37.632 77.501,38.171 77.501,38.171C77.501,38.171 78.868,35.386 79.073,35.137C81.101,32.679 83.448,32.267 85.052,32.228C87.602,32.165 90.752,32.871 92.572,37.002C92.788,37.493 93.254,38.508 93.254,40.255C93.254,44.754 92.794,49.371 93.217,53.861C93.42,56.021 93.646,58.187 93.751,60.359C93.854,62.479 94.088,64.629 94.323,66.731C94.324,66.738 94.479,68.691 94.479,68.701C94.502,68.951 94.556,69.198 94.579,69.448C94.599,69.661 94.607,70.036 94.607,70.391L94.614,70.657L94.607,70.503L94.595,71.262C94.131,77.636 88.266,78.524 87.9,78.584C85.939,78.903 83.942,78.589 82.011,77.229C81.468,76.847 80.335,76.076 79.51,74.434C79.23,74.125 78.918,73.776 78.809,73.636C77.46,71.901 76.149,70.129 74.688,68.473C74.145,67.859 73.613,67.234 73.089,66.603C71.016,68.134 68.903,69.634 66.789,71.175C61.229,75.226 55.128,77.365 48.39,78.917C45.604,79.558 42.099,80.565 39.17,80.353C35.337,80.077 31.161,78.271 27.566,76.963C25.963,76.38 23.264,75.685 21.861,74.682C19.617,73.077 17.725,70.981 15.331,69.574C14.414,69.035 13.018,67.422 12.166,66.375C11.309,65.872 9.906,64.999 9.264,64.357C6.163,61.256 6.142,56.234 9.203,53.108Z" style="fill:rgb(48,61,222);"/>
        <circle cx="24" cy="43" r="6" style="fill:rgb(246,142,127);"/>
        <g transform="matrix(1,0,0,1,14,0)">
            <circle cx="24" cy="43" r="6" style="fill:rgb(246,142,127);"/>
        </g>
    </g>
</svg>
